<svg id="Layer_1" data-name="Layer 1" xmlns="http://www.w3.org/2000/svg" viewBox="0 0 200 200"><defs><style>.cls-1{fill:#3f53a0;}.cls-2,.cls-3,.cls-4,.cls-5,.cls-6{fill:none;}.cls-2,.cls-4,.cls-6{stroke:#4662ab;}.cls-2,.cls-3,.cls-4,.cls-6{stroke-miterlimit:10;}.cls-2{stroke-width:0.97px;}.cls-3{stroke:#87acdc;stroke-width:1.44px;}.cls-4{stroke-width:1px;}.cls-6{stroke-width:1.32px;}.cls-7{fill:#87acdc;}.cls-8{fill:#4662ab;}</style></defs><path class="cls-1" d="M11.32,153.46v9.66a3,3,0,0,1-1.18,2.51,3.43,3.43,0,0,1-1.2.62,4.64,4.64,0,0,1-2.76,0,3.43,3.43,0,0,1-1.2-.62,3.19,3.19,0,0,1-.85-1,3.25,3.25,0,0,1-.32-1.47v-5.49H5.24v5.49a1.74,1.74,0,0,0,.2.84,1.91,1.91,0,0,0,.53.6,2.41,2.41,0,0,0,.74.35,2.84,2.84,0,0,0,1.7,0,2.59,2.59,0,0,0,.75-.35,1.91,1.91,0,0,0,.53-.6,1.74,1.74,0,0,0,.2-.84v-9.66Z"/><path class="cls-1" d="M14.34,153.46v7.81a.86.86,0,0,0,.07.36,1,1,0,0,0,.49.49,1,1,0,0,0,.35.07h.68v1.43h-.68a2.36,2.36,0,0,1-1.65-.69,2.17,2.17,0,0,1-.51-.75,2.27,2.27,0,0,1-.18-.91v-7.81Z"/><path class="cls-1" d="M15.29,162.19h3.24v1.43H15.29Z"/><path class="cls-1" d="M17.9,162.19h3.24v1.43H17.9Z"/><path class="cls-1" d="M24.39,156.3v5a2.15,2.15,0,0,1-.19.91A2.3,2.3,0,0,1,23,163.43a2.32,2.32,0,0,1-.91.19H20.51v-1.43H22a1,1,0,0,0,.36-.07,1,1,0,0,0,.29-.2.81.81,0,0,0,.19-.29.86.86,0,0,0,.08-.36v-5Zm-3.6,9.44a.72.72,0,0,1,.06-.29.83.83,0,0,1,.15-.23.78.78,0,0,1,.24-.16.67.67,0,0,1,.28-.06.64.64,0,0,1,.28.06.78.78,0,0,1,.24.16.87.87,0,0,1,.16.23.71.71,0,0,1,.05.29.66.66,0,0,1-.05.28.73.73,0,0,1-.16.23.78.78,0,0,1-.24.16.82.82,0,0,1-.28.05.87.87,0,0,1-.28-.05.78.78,0,0,1-.24-.16.7.7,0,0,1-.15-.23A.67.67,0,0,1,20.79,165.74Zm2.14,0a.93.93,0,0,1,.05-.29.87.87,0,0,1,.16-.23.78.78,0,0,1,.24-.16.67.67,0,0,1,.28-.06.72.72,0,0,1,.29.06.73.73,0,0,1,.23.16.83.83,0,0,1,.15.23.72.72,0,0,1,.06.29.69.69,0,0,1-.21.51.72.72,0,0,1-.52.21.87.87,0,0,1-.28-.05.78.78,0,0,1-.24-.16A.73.73,0,0,1,23,166,.87.87,0,0,1,22.93,165.74Z"/><path class="cls-1" d="M28.66,156.3v5.89h1.45v1.43H28.57a4,4,0,0,1-.22.67,3.44,3.44,0,0,1-.47.78,5.06,5.06,0,0,1-.81.78,5.7,5.7,0,0,1-1.24.69l-.55-1.32a5.21,5.21,0,0,0,.67-.34,3.33,3.33,0,0,0,.49-.38,2.33,2.33,0,0,0,.34-.38,2.15,2.15,0,0,0,.23-.36,1.78,1.78,0,0,0,.21-.82V156.3Z"/><path class="cls-1" d="M33.36,156.3v5.89h1.47v1.43H29.48v-1.43h2.45V156.3Zm-2,9.41a.87.87,0,0,1,.05-.28.94.94,0,0,1,.16-.23.75.75,0,0,1,.24-.15.67.67,0,0,1,.28-.06.69.69,0,0,1,.51.21.7.7,0,0,1,.22.51.68.68,0,0,1-.06.29.73.73,0,0,1-.16.23.72.72,0,0,1-.51.22.67.67,0,0,1-.28-.06.78.78,0,0,1-.24-.16.94.94,0,0,1-.16-.23A.88.88,0,0,1,31.37,165.71Z"/><path class="cls-1" d="M41.32,163.62H34.18v-1.43h1.46v-2.62a3.27,3.27,0,0,1,.26-1.29,3.13,3.13,0,0,1,.7-1,3,3,0,0,1,1-.69,3.25,3.25,0,0,1,1.28-.25,3.64,3.64,0,0,1,1.63.4L40,158a4.62,4.62,0,0,0-.58-.21,1.43,1.43,0,0,0-.48-.06,1.71,1.71,0,0,0-.72.14,1.88,1.88,0,0,0-.58.38,2.16,2.16,0,0,0-.39.59,1.76,1.76,0,0,0-.14.73v2.62h4.24Zm-3.13-9.43a.66.66,0,0,1,.05-.28.78.78,0,0,1,.16-.24.83.83,0,0,1,.23-.15.72.72,0,0,1,.29-.06.67.67,0,0,1,.28.06.63.63,0,0,1,.39.39.67.67,0,0,1,.06.28.72.72,0,0,1-.06.29.66.66,0,0,1-.15.22.78.78,0,0,1-.24.16.67.67,0,0,1-.28.06.72.72,0,0,1-.29-.06.87.87,0,0,1-.23-.16.69.69,0,0,1-.16-.22A.71.71,0,0,1,38.19,154.19Z"/><path class="cls-1" d="M54.53,153.46v7.81a2.31,2.31,0,0,1-.18.91,2.46,2.46,0,0,1-.5.75,2.4,2.4,0,0,1-.75.5,2.32,2.32,0,0,1-.91.19H48.68a3.17,3.17,0,0,1-1.29-.27,3.46,3.46,0,0,1-1.06-.71,3.19,3.19,0,0,1-.71-1,3.27,3.27,0,0,1-.26-1.29v-2.67h1.43v2.67a1.85,1.85,0,0,0,.15.74,1.78,1.78,0,0,0,.41.6,1.91,1.91,0,0,0,.6.4,1.77,1.77,0,0,0,.73.15h3.51a1,1,0,0,0,.35-.07,1,1,0,0,0,.49-.49,1,1,0,0,0,.07-.36v-7.81Zm-3.76,1.24h-.6a.46.46,0,0,0-.37.16.49.49,0,0,0-.12.32,1.64,1.64,0,0,0,0,.22l.06.19a.71.71,0,0,0,.1.14.16.16,0,0,0,.11.05h1.08v.72H48.72v-.72h.37a1.7,1.7,0,0,1-.12-.61,1.61,1.61,0,0,1,.06-.44,1,1,0,0,1,.21-.37.9.9,0,0,1,.36-.27,1.31,1.31,0,0,1,.55-.11h.62Z"/><path class="cls-1" d="M58.9,156.3v5.89h3.15v-8.73h1.44v8.73H65v1.43H56.11v-1.43h1.36V156.3Z"/><path class="cls-1" d="M64.31,162.19h3.24v1.43H64.31Z"/><path class="cls-1" d="M66.92,162.19h3.24v1.43H66.92Z"/><path class="cls-1" d="M69.52,162.19H71.1a3.48,3.48,0,0,1-.12-.92v-1.63a3.1,3.1,0,0,1,.26-1.29,3.35,3.35,0,0,1,.69-1.06,3.59,3.59,0,0,1,1-.72,3.07,3.07,0,0,1,1.27-.26,3,3,0,0,1,1.27.27,3.36,3.36,0,0,1,1,.73,3.46,3.46,0,0,1,.71,1.06,3.23,3.23,0,0,1,.25,1.27v1.64a1.83,1.83,0,0,1,0,.47,3.12,3.12,0,0,1-.09.44H79v1.43h-2.4a3.53,3.53,0,0,1-1,.73,3.09,3.09,0,0,1-1.28.27,3.18,3.18,0,0,1-1.28-.26,3.39,3.39,0,0,1-1-.74h-2.4Zm4.73-4.46a1.79,1.79,0,0,0-.72.15,2.17,2.17,0,0,0-.58.41,1.77,1.77,0,0,0-.39.61,1.85,1.85,0,0,0-.15.74v1.63a2,2,0,0,0,.54,1.36,2,2,0,0,0,.58.41,1.79,1.79,0,0,0,.72.15A1.71,1.71,0,0,0,75,163a2,2,0,0,0,.59-.41A2.08,2.08,0,0,0,76,162a2,2,0,0,0,.14-.73v-1.65a2,2,0,0,0-.14-.73,2.08,2.08,0,0,0-.4-.61,2,2,0,0,0-.59-.41A1.71,1.71,0,0,0,74.25,157.73Z"/><path class="cls-1" d="M81.37,153.46v7.81a2.12,2.12,0,0,1-.19.91,2.3,2.3,0,0,1-1.25,1.25,2.32,2.32,0,0,1-.91.19h-.67v-1.43H79a.92.92,0,0,0,.65-.27,1,1,0,0,0,.19-.29.86.86,0,0,0,.07-.36v-7.81Z"/><path class="cls-1" d="M84.39,153.46v10.16H83V153.46Z"/><path class="cls-1" d="M89.49,165h2.25a1.88,1.88,0,0,0,.62-.11,1.8,1.8,0,0,0,.53-.29,2,2,0,0,0,.41-.45,1.66,1.66,0,0,0,.25-.56h-2.8a2.27,2.27,0,0,1-.9-.19,2.33,2.33,0,0,1-.74-.49,2.25,2.25,0,0,1-.5-.74,2.11,2.11,0,0,1-.19-.9v-1.61a3.41,3.41,0,0,1,.26-1.32,3.28,3.28,0,0,1,.71-1.07,3.14,3.14,0,0,1,1-.73,3.25,3.25,0,0,1,1.28-.26,3.17,3.17,0,0,1,.88.12,3,3,0,0,1,.79.35,3.13,3.13,0,0,1,.67.53,3.46,3.46,0,0,1,.53.68,3.66,3.66,0,0,1,.33.79,3.15,3.15,0,0,1,.12.87v3.51a3.09,3.09,0,0,1-.27,1.28A3.22,3.22,0,0,1,93,166.19a3.09,3.09,0,0,1-1.28.26H89.49Zm4.11-2.84v-2.55a1.83,1.83,0,0,0-.15-.73,1.9,1.9,0,0,0-.4-.61,1.94,1.94,0,0,0-.6-.41,1.81,1.81,0,0,0-.73-.16,1.72,1.72,0,0,0-.72.15,2,2,0,0,0-.6.42,2,2,0,0,0-.4.62,1.94,1.94,0,0,0-.14.76v1.62a.8.8,0,0,0,.07.34.77.77,0,0,0,.19.28,1.1,1.1,0,0,0,.28.2,1,1,0,0,0,.35.07Z"/><path class="cls-1" d="M99.08,159.65a3.35,3.35,0,0,1,.26-1.3,3.21,3.21,0,0,1,.7-1.06,3.59,3.59,0,0,1,1-.72,3,3,0,0,1,1.27-.26,3.25,3.25,0,0,1,1.28.26,3.34,3.34,0,0,1,1.74,1.78,3.21,3.21,0,0,1,.26,1.27v1.63a2.33,2.33,0,0,1-.19,1,2.29,2.29,0,0,1-.5.75,2.41,2.41,0,0,1-.75.48,2.51,2.51,0,0,1-.92.17h-1.84a2.6,2.6,0,0,1-.93-.17,2.28,2.28,0,0,1-.74-.47,2.25,2.25,0,0,1-.5-.74,2.42,2.42,0,0,1-.18-1Zm1.44,1.63a.86.86,0,0,0,.26.66.9.9,0,0,0,.65.25h1.84a.91.91,0,0,0,.66-.26.9.9,0,0,0,.27-.68v-1.64a2,2,0,0,0-.14-.72,1.91,1.91,0,0,0-.4-.6,2.08,2.08,0,0,0-.59-.41,1.78,1.78,0,0,0-1.43,0,2.08,2.08,0,0,0-.59.41,2.12,2.12,0,0,0-.39.61,1.84,1.84,0,0,0-.14.74Zm0-7.09a.67.67,0,0,1,.06-.28.78.78,0,0,1,.16-.24.83.83,0,0,1,.23-.15.72.72,0,0,1,.29-.06.67.67,0,0,1,.28.06.61.61,0,0,1,.23.15.78.78,0,0,1,.16.24.67.67,0,0,1,.06.28.72.72,0,0,1-.06.29.69.69,0,0,1-.16.22.63.63,0,0,1-.23.16.67.67,0,0,1-.28.06.72.72,0,0,1-.29-.06.87.87,0,0,1-.23-.16.69.69,0,0,1-.16-.22A.72.72,0,0,1,100.55,154.19Zm2.14,0a.67.67,0,0,1,.06-.28.78.78,0,0,1,.16-.24.61.61,0,0,1,.23-.15.67.67,0,0,1,.28-.06.72.72,0,0,1,.29.06.7.7,0,0,1,.23.15,1,1,0,0,1,.15.24.67.67,0,0,1,.06.28.69.69,0,0,1-.21.51.71.71,0,0,1-.8.16.63.63,0,0,1-.23-.16.69.69,0,0,1-.16-.22A.72.72,0,0,1,102.69,154.19Z"/><path class="cls-1" d="M109.92,156.3v6.52a3.72,3.72,0,0,1-.3,1.38,4.46,4.46,0,0,1-.33.6,4.08,4.08,0,0,1-.51.62,4.4,4.4,0,0,1-.72.6,5.86,5.86,0,0,1-1,.52l-.56-1.32a3.8,3.8,0,0,0,.67-.35,3.44,3.44,0,0,0,.5-.38,3.08,3.08,0,0,0,.35-.39c.08-.13.16-.25.22-.37a1.87,1.87,0,0,0,.21-.85V156.3Z"/><path class="cls-1" d="M113,153.46v7.81a.86.86,0,0,0,.07.36.81.81,0,0,0,.19.29,1.15,1.15,0,0,0,.29.2,1,1,0,0,0,.36.07h.67v1.43h-.67a2.32,2.32,0,0,1-.91-.19,2.4,2.4,0,0,1-.75-.5,2.29,2.29,0,0,1-.5-.75,2.12,2.12,0,0,1-.19-.91v-7.81Z"/><path class="cls-1" d="M113.9,162.19h3.24v1.43H113.9Z"/><path class="cls-1" d="M116.5,162.19h3.24v1.43H116.5Z"/><path class="cls-1" d="M119.11,162.19h3.24v1.43h-3.24Z"/><path class="cls-1" d="M132.35,156.3v5.89h1.46v1.43h-12.1v-1.43h2.67V156.3h1.43v5.89h1.83V156.3h1.43v5.89h1.85V156.3Zm-5.81-2.11a.66.66,0,0,1,0-.28.78.78,0,0,1,.16-.24.75.75,0,0,1,.24-.15.64.64,0,0,1,.28-.06.67.67,0,0,1,.28.06.63.63,0,0,1,.39.39.67.67,0,0,1,.06.28.72.72,0,0,1-.06.29.66.66,0,0,1-.15.22.78.78,0,0,1-.24.16.67.67,0,0,1-.28.06.64.64,0,0,1-.28-.06.78.78,0,0,1-.24-.16.69.69,0,0,1-.16-.22A.71.71,0,0,1,126.54,154.19Zm1.07-1.55a.67.67,0,0,1,.06-.28.7.7,0,0,1,.15-.23.73.73,0,0,1,.23-.16.72.72,0,0,1,.29-.06.67.67,0,0,1,.28.06.78.78,0,0,1,.24.16.94.94,0,0,1,.16.23.87.87,0,0,1,0,.28.88.88,0,0,1,0,.29.94.94,0,0,1-.16.23.78.78,0,0,1-.24.16.67.67,0,0,1-.28.06.72.72,0,0,1-.29-.06.73.73,0,0,1-.23-.16.7.7,0,0,1-.15-.23A.68.68,0,0,1,127.61,152.64Zm1.07,1.55a.67.67,0,0,1,.06-.28.63.63,0,0,1,.16-.24.61.61,0,0,1,.23-.15.67.67,0,0,1,.28-.06.72.72,0,0,1,.29.06.83.83,0,0,1,.23.15,1,1,0,0,1,.15.24.67.67,0,0,1,.06.28.73.73,0,0,1-.73.73.67.67,0,0,1-.28-.06.63.63,0,0,1-.23-.16.57.57,0,0,1-.16-.22A.72.72,0,0,1,128.68,154.19Z"/><path class="cls-1" d="M137.05,156.3v5.89h1.46v1.43h-5.34v-1.43h2.44V156.3Zm-2,9.41a.67.67,0,0,1,.06-.28.73.73,0,0,1,.16-.23.7.7,0,0,1,.23-.15.68.68,0,0,1,.29-.06.72.72,0,0,1,.72.72.68.68,0,0,1-.06.29.7.7,0,0,1-.15.23.73.73,0,0,1-.23.16.67.67,0,0,1-.28.06.68.68,0,0,1-.29-.06.79.79,0,0,1-.39-.39A.68.68,0,0,1,135.05,165.71Z"/><path class="cls-1" d="M140.89,153.46v7.81a2.27,2.27,0,0,1-.18.91,2.49,2.49,0,0,1-.51.75,2.36,2.36,0,0,1-.74.5,2.4,2.4,0,0,1-.92.19h-.67v-1.43h.67a1.15,1.15,0,0,0,.36-.07,1,1,0,0,0,.29-.2.81.81,0,0,0,.19-.29.86.86,0,0,0,.08-.36v-7.81Z"/><path class="cls-1" d="M143.91,153.46v10.16h-1.43V153.46Z"/><path class="cls-1" d="M156,162.19v1.43h-2.9v-4a1.64,1.64,0,0,0-.14-.73,1.9,1.9,0,0,0-.4-.61,1.94,1.94,0,0,0-.6-.41,1.77,1.77,0,0,0-1.45,0,2,2,0,0,0-.6.42,2.2,2.2,0,0,0-.4.62,2.14,2.14,0,0,0-.14.76v1.61a.84.84,0,0,0,.07.35.92.92,0,0,0,.19.28,1.1,1.1,0,0,0,.28.2,1,1,0,0,0,.36.07h1.56v1.43h-1.56a2.28,2.28,0,0,1-.91-.19,2.33,2.33,0,0,1-.74-.49,2.39,2.39,0,0,1-.51-.74,2.31,2.31,0,0,1-.18-.91v-1.6a3.38,3.38,0,0,1,1-2.39,3.36,3.36,0,0,1,1.05-.73,3.25,3.25,0,0,1,1.28-.26,3.3,3.3,0,0,1,1.29.26,3.36,3.36,0,0,1,1.05.73,3.55,3.55,0,0,1,.72,1.06,3.28,3.28,0,0,1,.25,1.28v2.55Zm-6.53-8a.67.67,0,0,1,.06-.28.78.78,0,0,1,.16-.24.7.7,0,0,1,.23-.15.68.68,0,0,1,.29-.06.67.67,0,0,1,.28.06.7.7,0,0,1,.23.15.78.78,0,0,1,.16.24.67.67,0,0,1,.06.28.72.72,0,0,1-.06.29.69.69,0,0,1-.16.22.73.73,0,0,1-.23.16.67.67,0,0,1-.28.06.68.68,0,0,1-.29-.06.73.73,0,0,1-.23-.16.69.69,0,0,1-.16-.22A.72.72,0,0,1,149.48,154.19Zm2.14,0a.67.67,0,0,1,.06-.28.63.63,0,0,1,.16-.24.61.61,0,0,1,.23-.15.67.67,0,0,1,.28-.06.64.64,0,0,1,.28.06.75.75,0,0,1,.24.15,1,1,0,0,1,.15.24.67.67,0,0,1,.06.28.69.69,0,0,1-.21.51.7.7,0,0,1-.52.22.67.67,0,0,1-.28-.06.63.63,0,0,1-.23-.16.57.57,0,0,1-.16-.22A.72.72,0,0,1,151.62,154.19Z"/><path class="cls-1" d="M159.25,156.3v5.89h1.47v1.43h-5.35v-1.43h2.45V156.3Zm-3.61,9.44a.93.93,0,0,1,.05-.29.87.87,0,0,1,.16-.23.78.78,0,0,1,.24-.16.64.64,0,0,1,.28-.06.67.67,0,0,1,.28.06.78.78,0,0,1,.24.16,1.19,1.19,0,0,1,.16.23.93.93,0,0,1,0,.29.87.87,0,0,1,0,.28.94.94,0,0,1-.16.23.78.78,0,0,1-.24.16.87.87,0,0,1-.28.05.82.82,0,0,1-.28-.05.78.78,0,0,1-.24-.16.73.73,0,0,1-.16-.23A.87.87,0,0,1,155.64,165.74Zm2.13,0a.72.72,0,0,1,.06-.29.79.79,0,0,1,.39-.39.72.72,0,0,1,.29-.06.64.64,0,0,1,.28.06.78.78,0,0,1,.24.16,1.14,1.14,0,0,1,.15.23.72.72,0,0,1,.06.29.69.69,0,0,1-.21.51.73.73,0,0,1-.52.21.93.93,0,0,1-.29-.05.87.87,0,0,1-.23-.16.73.73,0,0,1-.16-.23A.67.67,0,0,1,157.77,165.74Z"/><path class="cls-1" d="M164,156.3v5a2.36,2.36,0,0,1-.7,1.66,2.29,2.29,0,0,1-.75.5,2.32,2.32,0,0,1-.91.19h-1.52v-1.43h1.52a1,1,0,0,0,.36-.07,1.21,1.21,0,0,0,.3-.2,1,1,0,0,0,.19-.29.86.86,0,0,0,.07-.36v-5Zm.07-2.92h-.6a.43.43,0,0,0-.37.15.49.49,0,0,0-.12.32,1.64,1.64,0,0,0,0,.22l.06.19a.5.5,0,0,0,.1.14.16.16,0,0,0,.11,0h1.07v.72H162v-.72h.37a1.59,1.59,0,0,1-.06-1,1,1,0,0,1,.21-.37.87.87,0,0,1,.37-.27,1.28,1.28,0,0,1,.55-.11H164Z"/><path class="cls-1" d="M167.33,153.46v10.16h-1.44V153.46Z"/><path class="cls-1" d="M171.6,156.3v6.52a3.72,3.72,0,0,1-.3,1.38,4.46,4.46,0,0,1-.33.6,3.16,3.16,0,0,1-.51.62,4.4,4.4,0,0,1-.72.6,5.48,5.48,0,0,1-1,.52l-.55-1.32a3.69,3.69,0,0,0,.66-.35,3.44,3.44,0,0,0,.5-.38,2.46,2.46,0,0,0,.35-.39,3,3,0,0,0,.22-.37,1.87,1.87,0,0,0,.21-.85V156.3Z"/><path class="cls-1" d="M173.6,156.3a9.69,9.69,0,0,1,2.24.22,4.18,4.18,0,0,1,1.52.66,2.53,2.53,0,0,1,.87,1.06,3.73,3.73,0,0,1,.28,1.46v2.49H180v1.43h-6.77v-1.43h3.88V159.7a1.8,1.8,0,0,0-.19-.85,1.58,1.58,0,0,0-.62-.61,3.39,3.39,0,0,0-1.08-.39,8.84,8.84,0,0,0-1.58-.12Z"/><path class="cls-1" d="M183.2,156.3v5a2.3,2.3,0,0,1-.69,1.66,2.36,2.36,0,0,1-1.65.69h-1.54v-1.43h1.54a1,1,0,0,0,.35-.07,1,1,0,0,0,.49-.49.86.86,0,0,0,.07-.36v-5Zm-3.57-2.11a.67.67,0,0,1,.06-.28,1,1,0,0,1,.15-.24.83.83,0,0,1,.23-.15.72.72,0,0,1,.29-.06.67.67,0,0,1,.28.06.61.61,0,0,1,.23.15.63.63,0,0,1,.16.24.67.67,0,0,1,.06.28.72.72,0,0,1-.06.29.57.57,0,0,1-.16.22.63.63,0,0,1-.23.16.67.67,0,0,1-.28.06.73.73,0,0,1-.73-.73Zm2.13,0a.67.67,0,0,1,.06-.28.78.78,0,0,1,.16-.24.7.7,0,0,1,.23-.15.72.72,0,0,1,.29-.06.67.67,0,0,1,.28.06.61.61,0,0,1,.23.15.78.78,0,0,1,.16.24.74.74,0,0,1-.67,1,.72.72,0,0,1-.29-.06.73.73,0,0,1-.23-.16.69.69,0,0,1-.16-.22A.72.72,0,0,1,181.76,154.19Z"/><path class="cls-1" d="M186.24,153.46v7.81a.86.86,0,0,0,.07.36.84.84,0,0,0,.2.29,1,1,0,0,0,.29.2,1,1,0,0,0,.35.07h.68v1.43h-.68a2.36,2.36,0,0,1-1.65-.69,2.17,2.17,0,0,1-.51-.75,2.28,2.28,0,0,1-.19-.91v-7.81Z"/><path class="cls-1" d="M193.64,154.36l-2.21,2,.34,0h.34a8.43,8.43,0,0,1,1,.06,5.72,5.72,0,0,1,.95.22,3.63,3.63,0,0,1,.84.41,2.67,2.67,0,0,1,.67.63,3,3,0,0,1,.45.89,3.94,3.94,0,0,1,.16,1.19v1.6a2.26,2.26,0,0,1-.18.9,2.44,2.44,0,0,1-.51.74,2.27,2.27,0,0,1-.75.49,2.37,2.37,0,0,1-.92.19h-6.64v-1.43h6.64a1,1,0,0,0,.36-.07.93.93,0,0,0,.3-.2.77.77,0,0,0,.19-.28.81.81,0,0,0,.08-.34v-1.6a1.91,1.91,0,0,0-.23-1,1.84,1.84,0,0,0-.61-.6,2.53,2.53,0,0,0-.85-.31,5,5,0,0,0-1-.09,6.77,6.77,0,0,0-.89.06l-.84.14a6.66,6.66,0,0,0-.69.19,4.13,4.13,0,0,0-.48.17l-.65-1.18,4.05-3.76Z"/><path class="cls-1" d="M60.85,180.75v1.42H58v-4a1.67,1.67,0,0,0-.14-.73,2,2,0,0,0-.4-.6,2.15,2.15,0,0,0-.6-.42,1.8,1.8,0,0,0-.73-.15,1.83,1.83,0,0,0-.73.15,1.94,1.94,0,0,0-1,1,1.91,1.91,0,0,0-.15.76v1.61a1,1,0,0,0,.07.35,1,1,0,0,0,.2.28.92.92,0,0,0,.28.19.85.85,0,0,0,.35.08h1.56v1.42H55.12a2.3,2.3,0,0,1-1.65-.68,2.3,2.3,0,0,1-.68-1.64v-1.61a3.37,3.37,0,0,1,.26-1.31,3.59,3.59,0,0,1,.7-1.08,3.5,3.5,0,0,1,1-.72,3.14,3.14,0,0,1,1.29-.27,3.09,3.09,0,0,1,1.28.27,3.55,3.55,0,0,1,1.06.72,3.39,3.39,0,0,1,.71,1.07,2.93,2.93,0,0,1,.25,1.28v2.55Zm-6.52-8a.82.82,0,0,1,.05-.28,1,1,0,0,1,.16-.24.78.78,0,0,1,.24-.16.87.87,0,0,1,.28,0,.82.82,0,0,1,.28,0,.74.74,0,0,1,.4.4.82.82,0,0,1,0,.28.87.87,0,0,1,0,.28.63.63,0,0,1-.16.23.78.78,0,0,1-.24.16.82.82,0,0,1-.28.05.87.87,0,0,1-.28-.05.78.78,0,0,1-.24-.16.79.79,0,0,1-.16-.23A.87.87,0,0,1,54.33,172.75Zm2.14,0a.64.64,0,0,1,.05-.28.78.78,0,0,1,.16-.24.87.87,0,0,1,.23-.16.93.93,0,0,1,.29,0,.87.87,0,0,1,.28,0,.63.63,0,0,1,.23.16.78.78,0,0,1,.16.24.82.82,0,0,1,.05.28.72.72,0,0,1-.72.72.93.93,0,0,1-.29-.05.87.87,0,0,1-.23-.16.63.63,0,0,1-.16-.23A.66.66,0,0,1,56.47,172.75Z"/><path class="cls-1" d="M60.22,180.75h3.24v1.42H60.22Z"/><path class="cls-1" d="M62.82,180.75h3.24v1.42H62.82Z"/><path class="cls-1" d="M69.32,174.86v5a2.17,2.17,0,0,1-.19.92,2.25,2.25,0,0,1-.5.74,2.56,2.56,0,0,1-.75.51,2.34,2.34,0,0,1-.91.18H65.44v-1.42H67a.85.85,0,0,0,.35-.08,1,1,0,0,0,.29-.19.94.94,0,0,0,.2-.29.9.9,0,0,0,.07-.37v-5Zm-3.6,9.43a.66.66,0,0,1,0-.28.63.63,0,0,1,.16-.23.87.87,0,0,1,.23-.16.72.72,0,0,1,.29-.06.67.67,0,0,1,.28.06.78.78,0,0,1,.24.16.61.61,0,0,1,.15.23.67.67,0,0,1,.06.28.72.72,0,0,1-.06.29.83.83,0,0,1-.15.23,1,1,0,0,1-.24.15.67.67,0,0,1-.28.06.72.72,0,0,1-.29-.06,1.14,1.14,0,0,1-.23-.15.87.87,0,0,1-.16-.23A.71.71,0,0,1,65.72,184.29Zm2.13,0a.67.67,0,0,1,.06-.28.63.63,0,0,1,.16-.23.87.87,0,0,1,.23-.16.72.72,0,0,1,.29-.06.67.67,0,0,1,.28.06.79.79,0,0,1,.39.39.71.71,0,0,1-.16.8.69.69,0,0,1-.51.21.72.72,0,0,1-.29-.06,1.14,1.14,0,0,1-.23-.15.87.87,0,0,1-.16-.23A.72.72,0,0,1,67.85,184.29Z"/><path class="cls-1" d="M71.3,174.86a9.69,9.69,0,0,1,2.24.22,4.44,4.44,0,0,1,1.52.65,2.72,2.72,0,0,1,.87,1.07,3.69,3.69,0,0,1,.27,1.46v1.6a2.26,2.26,0,0,1-.18.9,2.39,2.39,0,0,1-.51.74,2.44,2.44,0,0,1-.75.49,2.36,2.36,0,0,1-.92.18h-3v-1.42h3a.86.86,0,0,0,.36-.08,1.17,1.17,0,0,0,.3-.19,1,1,0,0,0,.2-.28,1,1,0,0,0,.07-.35v-1.6a1.92,1.92,0,0,0-.19-.84,1.67,1.67,0,0,0-.62-.62,3.34,3.34,0,0,0-1.07-.38,8.94,8.94,0,0,0-1.59-.13Z"/><path class="cls-1" d="M78.84,183.58h2.25a1.89,1.89,0,0,0,.63-.1,1.62,1.62,0,0,0,.53-.3,1.72,1.72,0,0,0,.41-.44,1.63,1.63,0,0,0,.25-.57h-2.8a2.26,2.26,0,0,1-.9-.18,2.51,2.51,0,0,1-.74-.49,2.36,2.36,0,0,1-.5-.74,2.26,2.26,0,0,1-.18-.9v-1.62a3.37,3.37,0,0,1,.26-1.31,3.43,3.43,0,0,1,.71-1.08,3.34,3.34,0,0,1,1-.72,3.09,3.09,0,0,1,1.28-.27A2.93,2.93,0,0,1,82,175a3.49,3.49,0,0,1,.79.34,3.18,3.18,0,0,1,.67.54,3.4,3.4,0,0,1,.53.67,3.54,3.54,0,0,1,.33.8,3.12,3.12,0,0,1,.11.86v2.55h1.46v1.42H84.36a2.91,2.91,0,0,1-.37,1.12,3.18,3.18,0,0,1-.72.9,3.29,3.29,0,0,1-2.18.82H78.84ZM83,180.75V178.2a2,2,0,0,0-.55-1.34,2,2,0,0,0-.59-.42,1.85,1.85,0,0,0-.74-.15,1.79,1.79,0,0,0-.72.15,1.77,1.77,0,0,0-.59.42,2,2,0,0,0-.55,1.38v1.61a1,1,0,0,0,.07.35,1,1,0,0,0,.2.28.92.92,0,0,0,.28.19.81.81,0,0,0,.34.08Z"/><path class="cls-1" d="M85.22,180.75H86.8a3.58,3.58,0,0,1-.09-.45,3.71,3.71,0,0,1,0-.47V178.2a3.34,3.34,0,0,1,.25-1.3,3.49,3.49,0,0,1,.7-1.06,3.26,3.26,0,0,1,1-.71,3.12,3.12,0,0,1,2.54,0,3.56,3.56,0,0,1,1.05.74,3.52,3.52,0,0,1,.71,1.06,3.2,3.2,0,0,1,.25,1.27v1.64a1.83,1.83,0,0,1,0,.47,3.48,3.48,0,0,1-.1.44h1.59v1.42h-2.4a3.29,3.29,0,0,1-1.06.73,2.92,2.92,0,0,1-1.28.28,3,3,0,0,1-1.27-.27,3.09,3.09,0,0,1-1-.74h-2.4Zm4.72-4.46a1.74,1.74,0,0,0-.71.15,1.85,1.85,0,0,0-.58.41,1.91,1.91,0,0,0-.4.6,2.08,2.08,0,0,0-.14.75v1.63a1.9,1.9,0,0,0,.54,1.36,1.85,1.85,0,0,0,.58.41,1.78,1.78,0,0,0,1.43,0,2,2,0,0,0,.59-.41,2,2,0,0,0,.54-1.35V178.2a1.8,1.8,0,0,0-.15-.73,1.87,1.87,0,0,0-.39-.61,2,2,0,0,0-.59-.41A1.61,1.61,0,0,0,89.94,176.29Z"/><path class="cls-1" d="M95.43,175.57a4.29,4.29,0,0,1,.53-.22c.22-.09.47-.16.74-.24s.55-.14.85-.19a5.07,5.07,0,0,1,.86-.07,4.89,4.89,0,0,1,1.21.15,2.72,2.72,0,0,1,1.06.53,2.78,2.78,0,0,1,.75,1.05,4.26,4.26,0,0,1,.29,1.68v2.49h1.46v1.42H94.05v-1.42h6.23v-2.5a2.49,2.49,0,0,0-.16-1,1.69,1.69,0,0,0-.42-.6,1.56,1.56,0,0,0-.6-.31,2.35,2.35,0,0,0-.69-.1,4,4,0,0,0-.68.06c-.24,0-.46.09-.67.15s-.41.12-.59.19l-.43.18Z"/><path class="cls-1" d="M102.54,180.75h1.58a3.58,3.58,0,0,1-.09-.45,3.71,3.71,0,0,1,0-.47V178.2a3.34,3.34,0,0,1,.25-1.3,3.49,3.49,0,0,1,.7-1.06,3.26,3.26,0,0,1,1-.71,3.12,3.12,0,0,1,2.54,0,3.56,3.56,0,0,1,1,.74,3.52,3.52,0,0,1,.71,1.06,3.2,3.2,0,0,1,.25,1.27v1.64a1.83,1.83,0,0,1,0,.47,3.43,3.43,0,0,1-.09.44H112v1.42h-2.4a3.36,3.36,0,0,1-1,.73,3,3,0,0,1-1.28.28,3,3,0,0,1-1.28-.27,3.09,3.09,0,0,1-1-.74h-2.4Zm4.73-4.46a1.75,1.75,0,0,0-.72.15,1.85,1.85,0,0,0-.58.41,1.91,1.91,0,0,0-.4.6,2.08,2.08,0,0,0-.14.75v1.63a1.9,1.9,0,0,0,.54,1.36,1.85,1.85,0,0,0,.58.41,1.75,1.75,0,0,0,.72.15,1.71,1.71,0,0,0,.71-.15,2,2,0,0,0,.59-.41,1.9,1.9,0,0,0,.54-1.35V178.2a2,2,0,0,0-.14-.73,2.08,2.08,0,0,0-.4-.61,2,2,0,0,0-.59-.41A1.57,1.57,0,0,0,107.27,176.29Z"/><path class="cls-1" d="M114.39,172v7.81a2.15,2.15,0,0,1-.19.91,2.25,2.25,0,0,1-.5.74,2.3,2.3,0,0,1-1.66.69h-.67v-1.42H112a.85.85,0,0,0,.35-.08,1,1,0,0,0,.3-.19,1.12,1.12,0,0,0,.19-.29.86.86,0,0,0,.07-.36V172Z"/><path class="cls-1" d="M117.41,172v10.15H116V172Z"/><path class="cls-1" d="M124.13,174.86v6.52a3.37,3.37,0,0,1-.3,1.38,3.64,3.64,0,0,1-.33.6,3.49,3.49,0,0,1-.5.62,6.31,6.31,0,0,1-.72.59,5.3,5.3,0,0,1-1,.52l-.55-1.32a3.8,3.8,0,0,0,.67-.34,3.33,3.33,0,0,0,.49-.38,2.46,2.46,0,0,0,.35-.39,3.13,3.13,0,0,0,.23-.37,2.17,2.17,0,0,0,.21-.85v-6.58Z"/><path class="cls-1" d="M126.78,183.58H129a1.89,1.89,0,0,0,.63-.1,1.62,1.62,0,0,0,.53-.3,1.72,1.72,0,0,0,.41-.44,1.63,1.63,0,0,0,.25-.57h-2.8a2.26,2.26,0,0,1-.9-.18,2.51,2.51,0,0,1-.74-.49,2.36,2.36,0,0,1-.5-.74,2.26,2.26,0,0,1-.18-.9v-1.62a3.19,3.19,0,0,1,.26-1.31,3.59,3.59,0,0,1,.7-1.08,3.5,3.5,0,0,1,1-.72,3.09,3.09,0,0,1,1.28-.27,2.93,2.93,0,0,1,.88.13,3.49,3.49,0,0,1,.79.34,3.18,3.18,0,0,1,.67.54,3,3,0,0,1,.52.67,3.16,3.16,0,0,1,.34.8,3.12,3.12,0,0,1,.11.86v2.55h1.46v1.42H132.3a2.91,2.91,0,0,1-.37,1.12,3.18,3.18,0,0,1-.72.9A3.29,3.29,0,0,1,129,185h-2.25Zm4.12-2.83V178.2a1.8,1.8,0,0,0-.15-.73,2,2,0,0,0-.4-.61,2.1,2.1,0,0,0-.59-.42,1.85,1.85,0,0,0-.74-.15,1.79,1.79,0,0,0-.72.15,1.77,1.77,0,0,0-.59.42,2,2,0,0,0-.55,1.38v1.61a1,1,0,0,0,.07.35,1,1,0,0,0,.2.28.92.92,0,0,0,.28.19.81.81,0,0,0,.34.08Z"/><path class="cls-1" d="M134.54,175.57a3.93,3.93,0,0,1,.54-.22c.22-.09.46-.16.73-.24s.55-.14.85-.19a5.07,5.07,0,0,1,.86-.07,4.89,4.89,0,0,1,1.21.15,2.72,2.72,0,0,1,1.06.53,2.78,2.78,0,0,1,.75,1.05,4.26,4.26,0,0,1,.29,1.68v2.49h1.46v1.42h-9.13v-1.42h6.23v-2.5a2.49,2.49,0,0,0-.16-1,1.69,1.69,0,0,0-.42-.6,1.43,1.43,0,0,0-.6-.31,2.35,2.35,0,0,0-.69-.1,4,4,0,0,0-.68.06c-.24,0-.46.09-.67.15a5.65,5.65,0,0,0-.58.19l-.44.18Z"/><path class="cls-1" d="M141.65,180.75h1.58a3.58,3.58,0,0,1-.09-.45,3.71,3.71,0,0,1,0-.47V178.2a3.18,3.18,0,0,1,.26-1.3,3.32,3.32,0,0,1,.7-1.06,3.37,3.37,0,0,1,1-.71,3.15,3.15,0,0,1,2.55,0,3.54,3.54,0,0,1,1.75,1.8,3.2,3.2,0,0,1,.25,1.27v1.64a3.28,3.28,0,0,1-.25,1.28,3.65,3.65,0,0,1-.71,1.06,3.34,3.34,0,0,1-1,.72,2.91,2.91,0,0,1-1.27.28,3.17,3.17,0,0,1-2.34-1h-2.4Zm4.74-4.46a1.72,1.72,0,0,0-.72.15,1.89,1.89,0,0,0-.59.41,1.73,1.73,0,0,0-.39.6,1.9,1.9,0,0,0-.15.75v1.63a1.9,1.9,0,0,0,.15.75,1.87,1.87,0,0,0,.39.61,1.89,1.89,0,0,0,.59.41,1.78,1.78,0,0,0,1.43,0,2,2,0,0,0,.59-.41,1.9,1.9,0,0,0,.54-1.35V178.2a2,2,0,0,0-.14-.73,2.08,2.08,0,0,0-.4-.61,2,2,0,0,0-.59-.41A1.57,1.57,0,0,0,146.39,176.29Z"/><path class="cls-2" d="M91,52.54V41.16c0-4,4-7.23,9-7.23h0c5,0,9,3.24,9,7.23V52.54"/><line class="cls-3" x1="100" y1="14.74" x2="100" y2="27.63"/><line class="cls-3" x1="95.29" y1="19.95" x2="104.71" y2="19.95"/><path class="cls-4" d="M113,54.25V41.9a12.89,12.89,0,0,0-13-12.72h0A12.89,12.89,0,0,0,87,41.9V54.25"/><path class="cls-5" d="M98.27,104.47V112H91.66v4.48c0,.33,0,1.85-.06,2.54,4.89-3.16,10.22-6.1,16.8-7v-7.59Z"/><path class="cls-5" d="M100,78.75h0A14.22,14.22,0,0,0,85.78,93v4.18A14.21,14.21,0,0,1,100,82.94h0a14.21,14.21,0,0,1,14.22,14.22V93A14.22,14.22,0,0,0,100,78.75Z"/><path class="cls-5" d="M107.15,104.43A7.15,7.15,0,0,0,100,97.28h0a7.15,7.15,0,0,0-7.15,7.15V112h14.3Z"/><path class="cls-6" d="M75.65,86.36A24.35,24.35,0,0,1,100,62h0a24.35,24.35,0,0,1,24.35,24.35v25.15a29.55,29.55,0,0,1,8.23,2.57V85.76A32.58,32.58,0,0,0,100,53.19h0A32.58,32.58,0,0,0,67.42,85.76v41.17l2.26-.73a17,17,0,0,1,6-.8h0v-39Z"/><path class="cls-6" d="M100,66.19h0A24.35,24.35,0,0,0,75.65,90.54v13.93H85.78V93A14.22,14.22,0,0,1,100,78.75h0A14.22,14.22,0,0,1,114.22,93v11.49h10.13V90.54A24.35,24.35,0,0,0,100,66.19Z"/><path class="cls-6" d="M100,62h0A24.35,24.35,0,0,0,75.65,86.36v4.18A24.35,24.35,0,0,1,100,66.19h0a24.35,24.35,0,0,1,24.35,24.35V86.36A24.35,24.35,0,0,0,100,62Z"/><path class="cls-6" d="M100.46,97.28h0a7.16,7.16,0,0,1,7.16,7.15v10.12l.21-.14a14.32,14.32,0,0,1,6.39-2.41h0V97.16A14.21,14.21,0,0,0,100,82.94h0A14.21,14.21,0,0,0,85.78,97.16v28.1h0a16.41,16.41,0,0,1,7.45-2h0l.08-18.8A7.15,7.15,0,0,1,100.46,97.28Z"/><path class="cls-7" d="M133.46,130.21c-6-3-11.32-8.43-19.37-10.5v4.05h-3.66c10.18,1.41,15.94,8.25,22.6,10.13,9.44,2.55,18.3-1.34,21.85-6.27A21.66,21.66,0,0,1,133.46,130.21Z"/><path class="cls-7" d="M99.57,119.82c-8.79,1.67-21.9,10.74-33.77,7.27,9.71,6,23.64-.35,33.23-2.65a32.63,32.63,0,0,1,8.75-.91v-4.66A33.8,33.8,0,0,0,99.57,119.82Z"/><path class="cls-7" d="M114.09,119.71a26.37,26.37,0,0,0-6.31-.84v4.66c.92,0,1.8.12,2.65.23h3.66Z"/><path class="cls-7" d="M45.12,121.94c8.05,9.82,19,15.45,31.78,15.48,12-1,25.28-7,31-12.3C100.31,128.23,86,132,77.76,132.7,66.14,133.51,55.1,128.2,45.12,121.94Z"/><path class="cls-7" d="M94.88,118.86c0,.28,0,.38-.07,0-.87.56-1.71,1.13-2.55,1.69,2.59-.81,6.4-2.55,10.37-3.36a23,23,0,0,1,5.15-.51v-3.21C102.72,114.18,98.63,116.43,94.88,118.86Z"/><path class="cls-7" d="M148.13,123c6.15-3.9,6.36-11.37,2.21-15.09-6.19-5.61-15,2.4-8.92,8-2.65-4.19-.07-7.47,3.05-7.55,5.63-.22,8.65,8.63-.5,11.94-5.95,2.14-11.78-1-23.53-5.27a31.94,31.94,0,0,0-6.35-1.55v4C126.41,120.56,136.64,130.22,148.13,123Z"/><path class="cls-7" d="M114.09,113.53a24.22,24.22,0,0,0-6.31,0v3.21a27.49,27.49,0,0,1,6.31.83Z"/><path class="cls-7" d="M94.88,118.86l-.07,0C94.84,119.24,94.86,119.14,94.88,118.86Z"/><path class="cls-8" d="M76.06,47.7l0-.07a.78.78,0,0,1,0-.4.92.92,0,0,0-.17-.95c-.44-.54-1.44-.13-1.44-.13a5.63,5.63,0,0,1-.21-1.66,23.15,23.15,0,0,0,.38-3c.06-.85,1.09-1.87.75-2.24s-1.6.42-1.93,1.41c0,0,.14-.58-.23-.57s-.82,1.08-.72,1.65c0,0,0-.49-.31-.6s-.84,1-.65,1.75c0,0-1.16-2.1-.92-2.91s-1.31,0-1,1.87c0,0-.33-.63-.59-.23a2.74,2.74,0,0,0,.25,1.86s-.46-.39-.61-.5-.54.68.26,1.78c0,0-.52-.34-.6-.09s.68.8.88.87a1.81,1.81,0,0,0-.68,0c-.29.09.18,1,1.42,1.48,0,0-.39-.07-.51.14s1.46.74,2,.56c0,0-.52,1.3-2.46.78s-2.09-.57-2.27-.48-.21.62.37.64a.36.36,0,0,0,.08.49,1.77,1.77,0,0,0,.92.14s-.41.28-.16.48a1,1,0,0,0,.7.09s-.24.26,0,.44A3.37,3.37,0,0,0,71,49.65a3.7,3.7,0,0,1,1.16-.16,2,2,0,0,0,2.54-1.33,1.52,1.52,0,0,1,.31-.51c.16-.13.69,0,.69,0Z"/><path class="cls-8" d="M75.67,46.8a.1.1,0,0,0,.07.13.11.11,0,0,0,.13-.07.1.1,0,0,0-.07-.13A.09.09,0,0,0,75.67,46.8Z"/><path class="cls-8" d="M71.53,42.88c-.18-.75.38-1.85.66-1.75s.27.36.29.51,0,.06,0,.09a.51.51,0,0,0,0-.09c0-.59.38-1.55.73-1.56s.23.57.23.57c.33-1,1.59-1.78,1.93-1.41s-.69,1.39-.74,2.24a24.77,24.77,0,0,1-.38,3,5.36,5.36,0,0,0,.2,1.66A5.27,5.27,0,0,1,71.53,42.88Z"/></svg>