<svg id="Layer_1" data-name="Layer 1" xmlns="http://www.w3.org/2000/svg" viewBox="0 0 200 200"><defs><style>.cls-1{fill:#fff;stroke:#000;opacity:0.41;}.cls-1,.cls-2{stroke-miterlimit:10;stroke-width:0.5px;}.cls-2{fill:none;stroke:#1d1d1b;}</style></defs><circle class="cls-1" cx="100" cy="100" r="86.09"/><polygon class="cls-2" points="62.52 42.98 82.92 62.68 82.92 78.94 81.52 80.19 64.63 80.73 63.23 79.8 42.98 60.96 41.27 83.31 40.8 84.72 23.37 96.91 39.86 108.32 40.25 109.18 38.37 134.12 61.66 113.09 62.76 112.47 80.97 112.23 81.98 113.01 82.14 129.97 81.52 131.15 58.77 154.04 84.25 154.59 85.89 155.22 99.18 172.8 111.84 155.45 112.78 154.75 140.13 154.44 117.62 132.24 116.84 130.52 116.61 113.87 117.47 112.62 135.76 112.47 136.93 113.25 159.28 133.02 159.59 108.87 160.3 107.15 176.63 95.51 158.42 83.94 157.87 82.84 156.62 59.71 136.54 79.25 134.9 80.19 117.39 80.11 115.83 78.7 115.91 62.76 116.37 61.74 136.62 42.98 113.4 42.98 112.08 42.2 99.18 27.2 87.46 42.2 86.05 42.98 62.52 42.98"/><circle class="cls-2" cx="98.98" cy="96.48" r="18.87"/><circle class="cls-2" cx="98.98" cy="96.48" r="16.24"/><path class="cls-2" d="M99.79,86.64a6.46,6.46,0,0,1,3.6-1,1.28,1.28,0,0,1,.76,2.07c-1.26,1.57-3.73,4.89-3.11,6.11,0,0,1.09,3.16,7.38-3a1.28,1.28,0,0,1,1.84,0c.64.73.91,2.18-1.32,5a1,1,0,0,0,0,1.21c.71.89,1.81,2.66,1,4.38a1.29,1.29,0,0,1-2.06.39c-1.83-1.76-5.69-5.09-6.66-3.14a1.63,1.63,0,0,0,0,1.46c.59,1.15,2.1,3.91,3.51,5a1.29,1.29,0,0,1-.32,2.22c-.89.33-2.29.18-4.46-1.4a1,1,0,0,0-1,0A6.94,6.94,0,0,1,94.84,107a1.29,1.29,0,0,1-.76-2.14c1.92-2.11,5.61-6.58,2.37-6.71a3.88,3.88,0,0,0-2,.47,30.38,30.38,0,0,0-4.23,2.61,1.29,1.29,0,0,1-2-.57,3.54,3.54,0,0,1,.61-3.44.93.93,0,0,0,.11-1,10.55,10.55,0,0,1-1.06-4.43,1.28,1.28,0,0,1,2-.92c2.33,1.55,8.25,5.19,7.42,1.59a4.28,4.28,0,0,0-.53-1.27,25,25,0,0,0-2.59-3.65,1.28,1.28,0,0,1,.62-2.11,5,5,0,0,1,4,1.06A1,1,0,0,0,99.79,86.64Z"/><path class="cls-2" d="M99.16,51.1s-5.38-6.51-11.4-3.67a7.17,7.17,0,0,0-1.29.81c-.87.66-3,2.1-4.55,1.79a1.35,1.35,0,0,1-1.06-1c-.16-.73.31-1.83,4.13-2.3,0,0-5-1.19-6.07,1.46a2.43,2.43,0,0,0,.41,2.48c.72.85,2.23,1.82,5.31,1.36,0,0,.26,4.1,7.41,7.13a11.08,11.08,0,0,1,3.6,2.4c1.18,1.21,2.08,2.75.59,3.84,0,0-1.07.7-2.24-1.15a.83.83,0,0,0-.77-.39c-.5,0-1.08.6-.76,3a1,1,0,0,1-.32.87c-1.2,1.09-4.51,4.52-1.53,7.1,0,0,1.55-4,8.91-6.56,7.35,2.58,8.36,6.36,8.36,6.36,3-2.58-.33-6-1.53-7.1a1,1,0,0,1-.32-.87c.32-2.41-.26-3-.76-3a.85.85,0,0,0-.77.39c-1.17,1.85-2.24,1.15-2.24,1.15-1.49-1.08-.59-2.62.59-3.83a11,11,0,0,1,3.6-2.41c7.15-3,7.41-7.12,7.41-7.12,3.08.45,4.59-.51,5.31-1.36a2.46,2.46,0,0,0,.41-2.49c-1.09-2.65-6.07-1.46-6.07-1.46,3.82.47,4.29,1.57,4.13,2.31a1.36,1.36,0,0,1-1.06,1c-1.56.32-3.68-1.13-4.55-1.79a6.61,6.61,0,0,0-1.29-.8c-5.79-2.74-11,3.06-11.68,3.84"/><path class="cls-2" d="M99.16,62.06s11.43-7.12,12.29-9.74c0,0-1.72.4-2.23-.23,0,0-1.2-8.28-9,.53a1,1,0,0,0-.12,1.1,9.77,9.77,0,0,1,.71,1.52,2,2,0,0,1-.09,1.55c-.35.74-1,2-1.46,2"/><path class="cls-2" d="M99.28,62.06S88,54.94,87.09,52.32c0,0,1.72.4,2.22-.23,0,0,1.21-8.28,9,.53a1,1,0,0,1,.12,1.1,10.77,10.77,0,0,0-.72,1.52,2,2,0,0,0,.1,1.55c.35.74,1,2,1.46,2"/><polygon class="cls-2" points="99.27 34.94 96.71 39.19 97.67 40.18 96.71 41.09 99.27 45.51 101.82 41.09 100.86 40.23 101.82 39.19 99.27 34.94"/><path class="cls-2" d="M99.35,146.46s5.38,6.5,11.4,3.67a7.17,7.17,0,0,0,1.29-.81c.87-.66,3-2.1,4.55-1.79a1.36,1.36,0,0,1,1.06,1c.16.74-.31,1.84-4.13,2.31,0,0,5,1.19,6.07-1.46a2.46,2.46,0,0,0-.41-2.49c-.72-.85-2.23-1.81-5.31-1.35,0,0-.26-4.11-7.41-7.13a11.08,11.08,0,0,1-3.6-2.4c-1.18-1.22-2.08-2.76-.59-3.84,0,0,1.07-.7,2.24,1.15a.83.83,0,0,0,.77.39c.5-.06,1.08-.6.76-3a1,1,0,0,1,.32-.87c1.2-1.08,4.51-4.51,1.53-7.1,0,0-1.55,4-8.91,6.57-7.35-2.58-8.36-6.36-8.36-6.36-3,2.58.33,6,1.53,7.1a1,1,0,0,1,.32.87c-.32,2.41.26,3,.76,3a.81.81,0,0,0,.77-.39c1.17-1.84,2.24-1.14,2.24-1.14,1.49,1.08.59,2.62-.59,3.83a10.77,10.77,0,0,1-3.6,2.4c-7.15,3-7.41,7.13-7.41,7.13-3.08-.45-4.59.51-5.31,1.36a2.46,2.46,0,0,0-.41,2.49C80,152.23,85,151.05,85,151.05c-3.82-.47-4.29-1.58-4.13-2.31a1.33,1.33,0,0,1,1.06-1c1.56-.32,3.68,1.12,4.55,1.79a6.61,6.61,0,0,0,1.29.8c5.79,2.74,11-3.07,11.68-3.85"/><path class="cls-2" d="M99.35,135.5s-11.43,7.11-12.29,9.73c0,0,1.72-.39,2.23.24,0,0,1.2,8.28,9-.54a.94.94,0,0,0,.12-1.09,10.22,10.22,0,0,1-.71-1.52,2,2,0,0,1,.09-1.56c.36-.74,1-1.95,1.47-2"/><path class="cls-2" d="M99.23,135.5s11.33,7.11,12.19,9.73c0,0-1.72-.39-2.22.24,0,0-1.21,8.28-9-.54a1,1,0,0,1-.12-1.09,11.33,11.33,0,0,0,.72-1.52,2,2,0,0,0-.1-1.56c-.35-.74-1-1.95-1.46-2"/><polygon class="cls-2" points="99.25 162.62 101.8 158.37 100.84 157.38 101.8 156.47 99.25 152.04 96.69 156.47 97.65 157.33 96.69 158.37 99.25 162.62"/><path class="cls-2" d="M49.92,97.44s-6.5,5.39-3.67,11.41a7.17,7.17,0,0,0,.81,1.29c.66.87,2.1,3,1.79,4.55a1.35,1.35,0,0,1-1,1.06c-.73.16-1.83-.31-2.3-4.13,0,0-1.19,5,1.46,6.07a2.46,2.46,0,0,0,2.49-.41c.85-.72,1.81-2.23,1.35-5.31,0,0,4.11-.26,7.13-7.41a10.87,10.87,0,0,1,2.4-3.6c1.22-1.18,2.76-2.08,3.84-.59,0,0,.7,1.07-1.15,2.24a.83.83,0,0,0-.39.77c.06.5.6,1.07,3,.76a1,1,0,0,1,.86.32c1.09,1.2,4.52,4.51,7.11,1.53,0,0-4-1.55-6.57-8.91,2.58-7.35,6.36-8.36,6.36-8.36-2.58-3-6,.33-7.1,1.53a1,1,0,0,1-.87.32c-2.41-.32-2.95.26-3,.76a.81.81,0,0,0,.39.77C64.7,93.27,64,94.34,64,94.34c-1.08,1.49-2.62.59-3.83-.59a10.77,10.77,0,0,1-2.4-3.6c-3-7.15-7.13-7.41-7.13-7.41.45-3.08-.51-4.59-1.36-5.31A2.46,2.46,0,0,0,46.79,77c-2.65,1.09-1.46,6.07-1.46,6.07.47-3.82,1.57-4.29,2.31-4.13a1.32,1.32,0,0,1,1,1.06c.32,1.56-1.12,3.68-1.79,4.55a6.61,6.61,0,0,0-.8,1.29c-2.74,5.79,3.07,11,3.85,11.68"/><path class="cls-2" d="M60.88,97.44S53.77,86,51.15,85.16c0,0,.39,1.72-.24,2.23,0,0-8.28,1.2.54,9a.94.94,0,0,0,1.09.12,10.22,10.22,0,0,1,1.52-.71,2,2,0,0,1,1.56.09c.74.35,2,1,2,1.46"/><path class="cls-2" d="M60.88,97.33s-7.11,11.33-9.73,12.19c0,0,.39-1.72-.24-2.23,0,0-8.28-1.2.54-9a.94.94,0,0,1,1.09-.12,11.33,11.33,0,0,0,1.52.72,2,2,0,0,0,1.56-.1c.74-.35,2-1,2-1.46"/><polygon class="cls-2" points="33.76 97.34 38.01 99.9 39 98.94 39.91 99.9 44.34 97.34 39.91 94.79 39.05 95.75 38.01 94.79 33.76 97.34"/><path class="cls-2" d="M150.61,97.26s6.51-5.38,3.67-11.4a7.73,7.73,0,0,0-.8-1.29c-.67-.87-2.11-3-1.79-4.55a1.32,1.32,0,0,1,1-1.06c.73-.16,1.84.31,2.3,4.13,0,0,1.19-5-1.45-6.07a2.45,2.45,0,0,0-2.49.41c-.85.72-1.81,2.23-1.36,5.31,0,0-4.1.26-7.13,7.41a10.92,10.92,0,0,1-2.4,3.6c-1.21,1.18-2.75,2.08-3.84.59,0,0-.69-1.07,1.15-2.24a.83.83,0,0,0,.39-.77c-.05-.5-.59-1.08-3-.76a1,1,0,0,1-.87-.32c-1.09-1.2-4.52-4.51-7.1-1.53,0,0,4,1.55,6.56,8.91-2.58,7.35-6.36,8.36-6.36,8.36,2.59,3,6-.33,7.1-1.53a1,1,0,0,1,.87-.32c2.41.31,2.95-.26,3-.76a.83.83,0,0,0-.39-.77c-1.85-1.17-1.15-2.24-1.15-2.24,1.08-1.49,2.62-.59,3.84.59a10.87,10.87,0,0,1,2.4,3.6c3,7.15,7.12,7.41,7.12,7.41-.45,3.08.51,4.59,1.36,5.31a2.46,2.46,0,0,0,2.49.41c2.65-1.09,1.46-6.07,1.46-6.07-.47,3.82-1.57,4.29-2.31,4.13a1.36,1.36,0,0,1-1-1.06c-.32-1.56,1.13-3.68,1.79-4.55a7.17,7.17,0,0,0,.81-1.29c2.73-5.79-3.07-11-3.85-11.68"/><path class="cls-2" d="M139.66,97.26s7.11,11.43,9.73,12.29c0,0-.39-1.72.23-2.23,0,0,8.28-1.2-.53-9a1,1,0,0,0-1.1-.12,10.78,10.78,0,0,1-1.52.71,2,2,0,0,1-1.55-.09c-.74-.36-1.95-1-2-1.47"/><path class="cls-2" d="M139.66,97.38s7.11-11.33,9.73-12.19c0,0-.39,1.72.23,2.22,0,0,8.28,1.21-.53,9a1,1,0,0,1-1.1.12,10.77,10.77,0,0,0-1.52-.72,2,2,0,0,0-1.55.1c-.74.35-1.95,1-2,1.46"/><polygon class="cls-2" points="166.77 97.36 162.52 94.81 161.53 95.77 160.63 94.81 156.2 97.36 160.63 99.92 161.49 98.95 162.52 99.92 166.77 97.36"/></svg>