<svg id="Layer_1" data-name="Layer 1" xmlns="http://www.w3.org/2000/svg" viewBox="0 0 100 100"><defs><style>.cls-1,.cls-2,.cls-3,.cls-4,.cls-5{fill:none;}.cls-1,.cls-3,.cls-5{stroke:#4662aa;}.cls-1,.cls-2,.cls-3,.cls-5{stroke-miterlimit:10;}.cls-1{stroke-width:0.97px;}.cls-2{stroke:#86acdb;stroke-width:1.44px;}.cls-3{stroke-width:1px;}.cls-5{stroke-width:1.32px;}.cls-6{fill:#86acdb;}.cls-7{fill:#4662aa;}</style></defs><path class="cls-1" d="M36.49,31.23V22.12c0-3.19,3.25-5.78,7.25-5.78h0c4,0,7.24,2.59,7.24,5.78v9.11"/><line class="cls-2" x1="43.74" y1="0.98" x2="43.74" y2="11.29"/><line class="cls-2" x1="39.97" y1="5.14" x2="47.5" y2="5.14"/><path class="cls-3" d="M54.17,32.59V22.72A10.31,10.31,0,0,0,43.74,12.53h0A10.31,10.31,0,0,0,33.3,22.72v9.87"/><path class="cls-4" d="M42.35,72.79v6H37.06V82.4c0,.27,0,1.49-.05,2,3.91-2.53,8.18-4.87,13.45-5.57V72.79Z"/><path class="cls-4" d="M43.74,52.21h0A11.39,11.39,0,0,0,32.35,63.59v3.35A11.38,11.38,0,0,1,43.74,55.56h0A11.38,11.38,0,0,1,55.12,66.94V63.59A11.39,11.39,0,0,0,43.74,52.21Z"/><path class="cls-4" d="M49.46,72.76A5.73,5.73,0,0,0,43.74,67h0A5.73,5.73,0,0,0,38,72.76v6.06H49.46Z"/><path class="cls-5" d="M24.24,58.3a19.49,19.49,0,0,1,19.5-19.49h0A19.49,19.49,0,0,1,63.23,58.3V78.42a24.14,24.14,0,0,1,6.58,2.06V57.82A26.08,26.08,0,0,0,43.74,31.74h0A26.08,26.08,0,0,0,17.66,57.82V90.77l1.81-.59a13.55,13.55,0,0,1,4.77-.64h0V58.3Z"/><path class="cls-5" d="M43.74,42.15h0a19.5,19.5,0,0,0-19.5,19.49V72.79h8.11v-9.2A11.39,11.39,0,0,1,43.74,52.21h0A11.39,11.39,0,0,1,55.12,63.59v9.2h8.11V61.64A19.5,19.5,0,0,0,43.74,42.15Z"/><path class="cls-5" d="M43.74,38.81h0A19.49,19.49,0,0,0,24.24,58.3v3.34a19.5,19.5,0,0,1,19.5-19.49h0A19.5,19.5,0,0,1,63.23,61.64V58.3A19.49,19.49,0,0,0,43.74,38.81Z"/><path class="cls-5" d="M44.11,67h0a5.73,5.73,0,0,1,5.72,5.73v8.1l.17-.11a11.43,11.43,0,0,1,5.12-1.93h0V66.94A11.38,11.38,0,0,0,43.74,55.56h0A11.38,11.38,0,0,0,32.35,66.94V89.43h0a13,13,0,0,1,6-1.62h0l.06-15A5.74,5.74,0,0,1,44.11,67Z"/><path class="cls-6" d="M77.77,93.39C73,91,68.71,86.64,62.27,85v3.24H59.34c8.14,1.13,12.75,6.6,18.09,8.11,7.55,2,14.64-1.08,17.48-5A17.31,17.31,0,0,1,77.77,93.39Z"/><path class="cls-6" d="M50.65,85.07c-7,1.35-17.54,8.6-27,5.83,7.77,4.78,18.92-.28,26.59-2.13a26,26,0,0,1,7-.72V84.32A27.06,27.06,0,0,0,50.65,85.07Z"/><path class="cls-6" d="M62.27,85a21,21,0,0,0-5.06-.67v3.73a20.37,20.37,0,0,1,2.13.18h2.93Z"/><path class="cls-6" d="M7.06,86.78c6.45,7.85,15.19,12.36,25.44,12.38,9.58-.77,20.23-5.62,24.81-9.85-6.07,2.5-17.52,5.55-24.12,6.07C23.89,96,15.05,91.79,7.06,86.78Z"/><path class="cls-6" d="M46.89,84.31c0,.23,0,.3-.06,0l-2,1.36A74.28,74.28,0,0,1,53.09,83a19.06,19.06,0,0,1,4.12-.41V80A24.76,24.76,0,0,0,46.89,84.31Z"/><path class="cls-6" d="M89.51,87.64c4.92-3.13,5.09-9.1,1.77-12.08-5-4.49-12,1.92-7.14,6.42-2.12-3.34-.06-6,2.44-6,4.5-.18,6.93,6.91-.4,9.56-4.77,1.71-9.43-.77-18.83-4.22a25.2,25.2,0,0,0-5.08-1.23v3.22C72.13,85.67,80.32,93.4,89.51,87.64Z"/><path class="cls-6" d="M62.27,80.05a19.5,19.5,0,0,0-5.06,0V82.6a22.35,22.35,0,0,1,5.06.67Z"/><path class="cls-6" d="M46.89,84.31l-.06,0C46.86,84.61,46.87,84.54,46.89,84.31Z"/><path class="cls-7" d="M23,27.35v-.06A.55.55,0,0,1,23,27a.77.77,0,0,0-.14-.76c-.35-.44-1.16-.11-1.16-.11a4.39,4.39,0,0,1-.16-1.33,17.63,17.63,0,0,0,.3-2.4c.05-.69.87-1.5.6-1.8s-1.28.34-1.54,1.13c0,0,.11-.46-.19-.46s-.66.87-.57,1.33c0,0,0-.4-.25-.48s-.67.8-.52,1.4c0,0-.93-1.69-.74-2.33s-1.05,0-.81,1.5c0,0-.27-.51-.47-.19s.06,1.32.19,1.49c0,0-.36-.32-.49-.4s-.42.54.22,1.43c0,0-.42-.28-.49-.08s.55.65.71.69a1.41,1.41,0,0,0-.55,0c-.23.07.15.81,1.14,1.19,0,0-.31-.06-.41.11s1.17.6,1.59.45c0,0-.41,1-2,.62s-1.68-.45-1.82-.38-.17.5.3.51a.28.28,0,0,0,.06.39,1.32,1.32,0,0,0,.74.11s-.33.23-.13.39a.81.81,0,0,0,.56.07s-.2.21,0,.35A2.68,2.68,0,0,0,19,28.92a2.79,2.79,0,0,1,.93-.13,1.62,1.62,0,0,0,2-1.07,1.24,1.24,0,0,1,.25-.41c.13-.1.55,0,.55,0Z"/><path class="cls-7" d="M22.67,26.63a.09.09,0,0,0,.06.11.08.08,0,0,0,.1-.06.09.09,0,0,0,0-.11A.09.09,0,0,0,22.67,26.63Z"/><path class="cls-7" d="M19.36,23.5c-.15-.6.31-1.49.53-1.4s.21.28.23.4,0,.05,0,.08a.45.45,0,0,0,0-.08c0-.46.3-1.24.58-1.24s.19.45.19.45c.26-.79,1.27-1.42,1.55-1.13s-.56,1.11-.6,1.8a19.56,19.56,0,0,1-.31,2.41,4.38,4.38,0,0,0,.17,1.33A4.24,4.24,0,0,1,19.36,23.5Z"/></svg>